<svg width="71" height="71" viewBox="0 0 71 71" fill="none" xmlns="http://www.w3.org/2000/svg">
<path d="M34.0208 37.8896H36.9792V23.6667H34.0208V37.8896ZM35.5 46.1959C36.0157 46.1959 36.4481 46.0213 36.7972 45.6722C37.1463 45.3231 37.3208 44.8907 37.3208 44.375C37.3208 43.8593 37.1463 43.4269 36.7972 43.0778C36.4481 42.7287 36.0157 42.5541 35.5 42.5541C34.9843 42.5541 34.5518 42.7287 34.2028 43.0778C33.8537 43.4269 33.6791 43.8593 33.6791 44.375C33.6791 44.8907 33.8537 45.3231 34.2028 45.6722C34.5518 46.0213 34.9843 46.1959 35.5 46.1959ZM14.7917 55.5257V52.5674H19.5708V29.1285C19.5708 25.2634 20.7939 21.8641 23.2399 18.9304C25.6865 15.9967 28.787 14.1697 32.5417 13.4493V11.8333C32.5417 11.0114 32.8286 10.313 33.4025 9.73809C33.9764 9.1627 34.6734 8.875 35.4933 8.875C36.3133 8.875 37.0124 9.1627 37.5908 9.73809C38.1691 10.313 38.4583 11.0114 38.4583 11.8333V13.4493C42.2129 14.1697 45.3135 15.9967 47.7601 18.9304C50.2061 21.8641 51.4291 25.2634 51.4291 29.1285V52.5674H56.2083V55.5257H14.7917ZM35.4896 63.2625C34.1727 63.2625 33.0488 62.7946 32.1179 61.8588C31.1865 60.9229 30.7208 59.798 30.7208 58.484H40.2792C40.2792 59.8079 39.81 60.9353 38.8718 61.8661C37.934 62.797 36.8066 63.2625 35.4896 63.2625ZM22.5292 52.5674H48.4708V29.1285C48.4708 25.5326 47.2078 22.4717 44.6819 19.9458C42.156 17.4199 39.0954 16.1569 35.5 16.1569C31.9046 16.1569 28.844 17.4199 26.3181 19.9458C23.7921 22.4717 22.5292 25.5326 22.5292 29.1285V52.5674Z" fill="#B20000"/>
</svg>
