<?xml version="1.0" encoding="UTF-8"?>
<svg id="Layer_1" data-name="Layer 1" xmlns="http://www.w3.org/2000/svg" viewBox="0 0 32 32">
  <defs>
    <style>
      .cls-1 {
        fill: #b20000;
      }
    </style>
  </defs>
  <path class="cls-1" d="M16.42,6.48c-.37-.42-.93-.63-1.68-.63H5.93l.75.68c-.52.41-.89.91-1.09,1.5l-1.79,5.2c-.22.61-.14,1.13.23,1.55.37.42.94.63,1.69.63h6.03c.75,0,1.4-.21,1.96-.63.55-.42.94-.93,1.16-1.55l1.79-5.2c.21-.61.13-1.13-.24-1.55ZM13.35,8.33l-1.59,4.59c-.03.11-.12.17-.26.17h-4.24c-.14,0-.2-.06-.16-.17l1.29-3.73-1.14-1.03h1.69s.02,0,.03,0h4.24c.14,0,.19.06.15.17Z"/>
  <polygon class="cls-1" points="20.98 23.85 23.49 16.6 20.28 16.6 20.28 16.6 18.44 16.6 19.84 17.87 16.97 26.15 25.69 26.15 26.49 23.85 20.98 23.85"/>
  <polygon class="cls-1" points="21.3 8.16 27.52 8.16 28.32 5.85 20 5.85 20 5.85 17.11 5.85 18.47 7.08 15.59 15.4 18.8 15.4 20.2 11.59 21.02 11.59 21.02 11.59 24.98 11.59 25.65 9.65 20.79 9.65 21.3 8.16 21.3 8.16 21.3 8.16"/>
  <path class="cls-1" d="M17.56,17.23c-.37-.42-.93-.63-1.68-.63h-5.71c-.06,0-.13,0-.19,0h0s-3.29,0-3.29,0l1.1.99c-.34.34-.58.74-.73,1.18l-.5,1.49c-.22.61-.14,1.13.23,1.55.37.42.94.63,1.69.63h4.64c.14,0,.19.06.15.17l-.37,1.06c-.03.11-.12.17-.26.17h-3.91c-.14,0-.2-.06-.16-.17l.2-.54h-3.21l-.29.85c-.22.61-.14,1.13.23,1.55.37.42.94.63,1.69.63h5.79c.75,0,1.39-.21,1.92-.63.52-.42.9-.93,1.12-1.55l.5-1.49c.22-.61.14-1.12-.23-1.55-.37-.42-.94-.63-1.69-.63h-4.64c-.14,0-.2-.06-.16-.17l.43-1.23h.19s.02,0,.03,0h3.91c.14,0,.19.06.15.17l-.18.54h3.21l.29-.85c.21-.61.13-1.13-.24-1.55Z"/>
</svg>