<?xml version="1.0" encoding="UTF-8"?>
<svg id="Layer_1" data-name="Layer 1" xmlns="http://www.w3.org/2000/svg" viewBox="0 0 32 32">
  <defs>
    <style>
      .cls-1 {
        fill: #fff;
      }

      .cls-2 {
        fill: #b20000;
      }
    </style>
  </defs>
  <circle class="cls-2" cx="16" cy="16" r="16"/>
  <path class="cls-1" d="M27.69,8.18c-.7-.79-1.76-1.19-3.18-1.19H7.88l1.42,1.28c-.99.78-1.67,1.72-2.05,2.82l-3.38,9.82c-.41,1.15-.27,2.12.44,2.92.71.79,1.77,1.19,3.19,1.19h11.39c1.42,0,2.65-.4,3.69-1.19,1.04-.79,1.77-1.77,2.18-2.92l3.38-9.82c.39-1.15.24-2.12-.46-2.92ZM21.89,11.67l-3,8.66c-.06.22-.23.33-.5.33h-8c-.27,0-.37-.11-.31-.33l2.43-7.04-2.15-1.95h3.19s.03,0,.05,0h8c.27,0,.36.11.27.33Z"/>
</svg>