<svg width="86" height="86" viewBox="0 0 86 86" fill="none" xmlns="http://www.w3.org/2000/svg">
<path d="M19.295 62.6212C18.154 62.6213 17.1739 63.0129 16.3888 63.798C15.6037 64.5831 15.2121 65.5632 15.212 66.7042C15.212 67.7742 15.5561 68.7031 16.2462 69.462L16.3888 69.6115C17.1739 70.3965 18.154 70.7881 19.295 70.7882C20.3649 70.7882 21.2939 70.4441 22.0528 69.754L22.2022 69.6115C22.9874 68.8263 23.379 67.8454 23.379 66.7042C23.3789 65.6346 23.0347 64.7061 22.3448 63.9474L22.2022 63.798C21.417 63.0128 20.4362 62.6212 19.295 62.6212ZM66.7042 62.6212C65.5632 62.6213 64.583 63.0129 63.7979 63.798C63.0128 64.5831 62.6213 65.5632 62.6212 66.7042C62.6212 67.7742 62.9653 68.7031 63.6554 69.462L63.7979 69.6115C64.583 70.3965 65.5632 70.7881 66.7042 70.7882C67.7741 70.7882 68.7031 70.4441 69.462 69.754L69.6114 69.6115C70.3966 68.8262 70.7882 67.8454 70.7882 66.7042C70.7881 65.5632 70.3965 64.5831 69.6114 63.798C68.8262 63.0128 67.8454 62.6212 66.7042 62.6212ZM19.295 15.212C18.154 15.2121 17.1739 15.6037 16.3888 16.3888C15.6036 17.1739 15.2121 18.154 15.212 19.295C15.212 20.4362 15.6036 21.4171 16.3888 22.2023C17.1739 22.9873 18.154 23.379 19.295 23.379C20.3649 23.379 21.294 23.0349 22.0528 22.3448L22.2022 22.2023C22.9874 21.4171 23.379 20.4362 23.379 19.295C23.3789 18.2254 23.0347 17.297 22.3448 16.5382L22.2022 16.3888C21.417 15.6036 20.4362 15.212 19.295 15.212ZM66.7042 15.212C65.5632 15.2121 64.583 15.6037 63.7979 16.3888C63.0129 17.1739 62.6213 18.154 62.6212 19.295C62.6212 20.4362 63.0127 21.4171 63.7979 22.2023C64.583 22.9873 65.5632 23.3789 66.7042 23.379C67.8454 23.379 68.8262 22.9874 69.6114 22.2023C70.3966 21.4171 70.7882 20.4362 70.7882 19.295C70.7881 18.154 70.3965 17.1739 69.6114 16.3888C68.8262 15.6036 67.8454 15.212 66.7042 15.212ZM17.1075 27.4698L16.7628 27.3575C15.1532 26.8321 13.8088 25.9126 12.7218 24.5909L12.5079 24.3214C11.3944 22.8654 10.837 21.1961 10.837 19.295C10.8371 17.0848 11.5571 15.1996 13.004 13.6154L13.3028 13.3029C14.95 11.6563 16.9376 10.8371 19.295 10.837C21.0773 10.837 22.6559 11.327 24.046 12.3058L24.3214 12.5079C25.7884 13.6308 26.7971 15.046 27.3575 16.7628L27.4698 17.1075H43.4249L42.5675 16.2531L35.4493 9.16907L38.5226 6.04993L51.7677 19.295L38.5235 32.5382L35.4493 29.421L42.5675 22.337L43.4249 21.4825H27.4659L27.3556 21.8331C26.9599 23.0893 26.3275 24.1753 25.4581 25.0978L25.2804 25.2804C24.3196 26.2418 23.1732 26.9335 21.8331 27.3556L21.4825 27.4659V58.5343L21.8331 58.6447C23.0896 59.0404 24.1761 59.6724 25.0987 60.5421L25.2804 60.7189V60.7198C26.2418 61.6807 26.9335 62.8269 27.3556 64.1671L27.4659 64.5167H43.3839L42.5343 63.6642L35.4806 56.5782L38.5245 53.462L51.7677 66.7042L38.5245 79.9474L35.4815 76.8312L43.421 68.8917H27.4698L27.3575 69.2374C26.832 70.847 25.9126 72.1914 24.5909 73.2784L24.3214 73.4923C22.8654 74.6057 21.196 75.1632 19.295 75.1632C17.0849 75.1631 15.1996 74.4431 13.6153 72.9962L13.3028 72.6974C11.6561 71.0501 10.837 69.0618 10.837 66.7042C10.8371 64.9219 11.3269 63.3434 12.3058 61.9532L12.5079 61.6779C13.6307 60.2111 15.0461 59.2031 16.7628 58.6427L17.1075 58.5304V27.4698ZM64.5167 27.463L64.1632 27.3546C62.4518 26.8301 61.0396 25.8395 59.9181 24.3693H59.919C58.8059 22.9093 58.2472 21.2241 58.2472 19.295C58.2472 17.0849 58.9665 15.1996 60.4122 13.6154L60.711 13.3029C62.3565 11.6563 64.3421 10.8371 66.6964 10.837C68.9043 10.837 70.7905 11.5568 72.378 13.004L72.6915 13.3029C74.3422 14.9501 75.1631 16.938 75.1632 19.295C75.1632 21.1037 74.6721 22.6977 73.6935 24.0929L73.4913 24.3693C72.3698 25.8394 70.9572 26.8301 69.2452 27.3546L68.8917 27.463V58.5304L69.2374 58.6427C70.8468 59.1681 72.1915 60.0869 73.2784 61.4083L73.4923 61.6779C74.6058 63.1339 75.1631 64.8032 75.1632 66.7042C75.1632 68.9148 74.4432 70.8005 72.9972 72.3849L72.6983 72.6974C71.053 74.3437 69.0677 75.1631 66.713 75.1632C64.5058 75.1632 62.6198 74.4433 61.0323 72.9962L60.7188 72.6964C59.0683 71.0491 58.2472 69.0613 58.2472 66.7042C58.2472 64.7754 58.806 63.0909 59.919 61.631L59.9181 61.63C61.0395 60.16 62.4521 59.1701 64.1632 58.6456L64.5167 58.5372V27.463Z" fill="white" stroke="#B20000"/>
</svg>
