<svg width="25" height="26" viewBox="0 0 25 26" fill="none" xmlns="http://www.w3.org/2000/svg">
<g clip-path="url(#clip0_28_308)">
<path d="M12.5 2.34102C15.8398 2.34102 16.2354 2.35625 17.5488 2.41719C18.7695 2.47305 19.4287 2.68633 19.8682 2.86406C20.4492 3.09766 20.8691 3.38203 21.3037 3.83398C21.7432 4.29102 22.0117 4.72266 22.2363 5.32695C22.4072 5.78398 22.6123 6.47461 22.666 7.73906C22.7246 9.11016 22.7393 9.52149 22.7393 12.9898C22.7393 16.4633 22.7246 16.8746 22.666 18.2406C22.6123 19.5102 22.4072 20.1957 22.2363 20.6527C22.0117 21.257 21.7383 21.6938 21.3037 22.1457C20.8643 22.6027 20.4492 22.882 19.8682 23.1156C19.4287 23.2934 18.7646 23.5066 17.5488 23.5625C16.2305 23.6234 15.835 23.6387 12.5 23.6387C9.16016 23.6387 8.76465 23.6234 7.45117 23.5625C6.23047 23.5066 5.57129 23.2934 5.13184 23.1156C4.55078 22.882 4.13086 22.5977 3.69629 22.1457C3.25684 21.6887 2.98828 21.257 2.76367 20.6527C2.59277 20.1957 2.3877 19.5051 2.33398 18.2406C2.27539 16.8695 2.26074 16.4582 2.26074 12.9898C2.26074 9.51641 2.27539 9.10508 2.33398 7.73906C2.3877 6.46953 2.59277 5.78398 2.76367 5.32695C2.98828 4.72266 3.26172 4.28594 3.69629 3.83398C4.13574 3.37695 4.55078 3.09766 5.13184 2.86406C5.57129 2.68633 6.23535 2.47305 7.45117 2.41719C8.76465 2.35625 9.16016 2.34102 12.5 2.34102ZM12.5 0C9.10645 0 8.68164 0.0152344 7.34863 0.0761719C6.02051 0.137109 5.10742 0.360547 4.31641 0.680469C3.49121 1.01562 2.79297 1.45742 2.09961 2.18359C1.40137 2.90469 0.976562 3.63086 0.654297 4.48398C0.34668 5.31172 0.131836 6.25625 0.0732422 7.6375C0.0146484 9.02891 0 9.4707 0 13C0 16.5293 0.0146484 16.9711 0.0732422 18.3574C0.131836 19.7387 0.34668 20.6883 0.654297 21.5109C0.976562 22.3691 1.40137 23.0953 2.09961 23.8164C2.79297 24.5375 3.49121 24.9844 4.31152 25.3145C5.10742 25.6344 6.01562 25.8578 7.34375 25.9188C8.67676 25.9797 9.10156 25.9949 12.4951 25.9949C15.8887 25.9949 16.3135 25.9797 17.6465 25.9188C18.9746 25.8578 19.8877 25.6344 20.6787 25.3145C21.499 24.9844 22.1973 24.5375 22.8906 23.8164C23.584 23.0953 24.0137 22.3691 24.3311 21.516C24.6387 20.6883 24.8535 19.7438 24.9121 18.3625C24.9707 16.9762 24.9854 16.5344 24.9854 13.0051C24.9854 9.47578 24.9707 9.03399 24.9121 7.64766C24.8535 6.26641 24.6387 5.3168 24.3311 4.49414C24.0234 3.63086 23.5986 2.90469 22.9004 2.18359C22.207 1.4625 21.5088 1.01562 20.6885 0.685547C19.8926 0.365625 18.9844 0.142188 17.6562 0.08125C16.3184 0.0152344 15.8936 0 12.5 0Z" fill="black"/>
<path d="M12.5 6.32227C8.95508 6.32227 6.0791 9.31328 6.0791 13C6.0791 16.6867 8.95508 19.6777 12.5 19.6777C16.0449 19.6777 18.9209 16.6867 18.9209 13C18.9209 9.31328 16.0449 6.32227 12.5 6.32227ZM12.5 17.3316C10.2002 17.3316 8.33496 15.3918 8.33496 13C8.33496 10.6082 10.2002 8.66836 12.5 8.66836C14.7998 8.66836 16.665 10.6082 16.665 13C16.665 15.3918 14.7998 17.3316 12.5 17.3316Z" fill="black"/>
<path d="M20.6738 6.05825C20.6738 6.92154 20 7.61724 19.1748 7.61724C18.3447 7.61724 17.6758 6.91646 17.6758 6.05825C17.6758 5.19497 18.3496 4.49927 19.1748 4.49927C20 4.49927 20.6738 5.20005 20.6738 6.05825Z" fill="black"/>
</g>
<defs>
<clipPath id="clip0_28_308">
<rect width="25" height="26" fill="white"/>
</clipPath>
</defs>
</svg>
